# Blender v2.92.0 OBJ File: 'CornellBox.blend'
# www.blender.org
mtllib bigcube.mtl
o BigBox
v -0.416024 -1.000000 0.562148
v -0.416024 0.250000 0.562148
v -0.562148 -1.000000 0.083976
v -0.562148 0.250000 0.083976
v 0.062148 -1.000000 0.416024
v 0.062148 0.250000 0.416024
v -0.083976 -1.000000 -0.062148
v -0.083976 0.250000 -0.062148
vt 0.625000 0.000000
vt 0.375000 0.250000
vt 0.375000 0.000000
vt 0.625000 0.250000
vt 0.375000 0.500000
vt 0.625000 0.500000
vt 0.375000 0.750000
vt 0.625000 0.750000
vt 0.375000 1.000000
vt 0.875000 0.500000
vt 0.625000 1.000000
vt 0.875000 0.750000
vn -0.9563 0.0000 0.2922
vn -0.2922 0.0000 -0.9563
vn 0.9563 0.0000 -0.2922
vn 0.2922 0.0000 0.9563
vn 0.0000 1.0000 0.0000
usemtl None
s off
f 2/1/1 3/2/1 1/3/1
f 4/4/2 7/5/2 3/2/2
f 8/6/3 5/7/3 7/5/3
f 6/8/4 1/9/4 5/7/4
f 4/10/5 6/8/5 8/6/5
f 2/1/1 4/4/1 3/2/1
f 4/4/2 8/6/2 7/5/2
f 8/6/3 6/8/3 5/7/3
f 6/8/4 2/11/4 1/9/4
f 4/10/5 2/12/5 6/8/5
